# xmcd
#
# Track frame offsets:
#	150
#	12491
#	33984
#	57373
#	72050
#	91435
#	114540
#
# Disc length: 1732 seconds
#
# Revision: 1
# Processed by: cddbd v1.5.1PL0 Copyright (c) Steve Scherf et al.
# Submitted via: audiograbber 1.83.01
#
DISCID=5706c207
DTITLE=Randy Burk and the Prisoners - Randy Burk and the Prisoners
DYEAR=2002
DGENRE=Country
TTITLE0=Get Your Nerve Up
TTITLE1=Fall Off the Face of the Earth
TTITLE2=In Your Place
TTITLE3=Prisoner
TTITLE4=When Jesus Drinks Coffee
TTITLE5=Ten Men
TTITLE6=The One Thing
EXTD=
EXTT0=
EXTT1=
EXTT2=
EXTT3=
EXTT4=
EXTT5=
EXTT6=
PLAYORDER=
